<?xml version="1.0" encoding="iso-8859-1"?>
<!-- Generator: Adobe Illustrator 19.0.0, SVG Export Plug-In . SVG Version: 6.00 Build 0)  -->
<svg version="1.1" id="Capa_1" xmlns="http://www.w3.org/2000/svg" xmlns:xlink="http://www.w3.org/1999/xlink" x="0px" y="0px"
	 viewBox="0 0 512.001 512.001" style="enable-background:new 0 0 512.001 512.001;" xml:space="preserve">
<path style="fill:#FF97A4;" d="M255.985,207.476c-4.731,2.738-10.218,4.313-16.078,4.313c-17.759,0-32.155-14.396-32.155-32.155
	s14.396-32.155,32.155-32.155c5.859,0,11.347,1.575,16.078,4.313v-26.644C105.291-42.292-29.535,107.485,16.759,243.943H115.6
	c-2.738,4.731-4.313,10.218-4.313,16.078c0,17.759,14.396,32.155,32.155,32.155s32.155-14.396,32.155-32.155
	c0-5.859-1.575-11.347-4.313-16.078h84.7V207.476z"/>
<path style="fill:#FE5578;" d="M272.062,324.331c-5.859,0-11.347,1.575-16.078,4.313v-84.7h-84.7
	c2.738,4.731,4.313,10.218,4.313,16.078c0,17.759-14.396,32.155-32.155,32.155s-32.155-14.396-32.155-32.155
	c0-5.859,1.575-11.347,4.313-16.078H16.759c2.577,7.598,5.71,15.153,9.439,22.611C96.902,407.962,255.986,460.99,255.986,460.99
	v-76.662c4.731,2.738,10.218,4.313,16.077,4.313c17.759,0,32.155-14.396,32.155-32.155S289.822,324.331,272.062,324.331z"/>
<path style="fill:#FF7D8D;" d="M114.309,51.385C34.562,58.002-13.799,153.869,16.759,243.942l32.155-8.039
	C22.727,158.715,54.498,77.272,114.309,51.385z"/>
<path style="fill:#FE3F67;" d="M58.353,258.516c-2.411-4.82-4.545-9.685-6.468-14.572H16.759c2.577,7.598,5.71,15.153,9.439,22.611
	C96.902,407.962,255.986,460.99,255.986,460.99v-21.367C205.764,416.2,109.202,360.214,58.353,258.516z"/>
<path style="fill:#FF97A4;" d="M404.41,243.943c2.738-4.731,4.313-10.218,4.313-16.078c0-17.759-14.396-32.155-32.155-32.155
	c-17.759,0-32.155,14.396-32.155,32.155c0,5.859,1.575,11.347,4.313,16.078h-92.74v84.7c4.731-2.738,10.218-4.313,16.078-4.313
	c17.759,0,32.155,14.396,32.155,32.155s-14.396,32.155-32.155,32.155c-5.859,0-11.347-1.575-16.078-4.313v76.662
	c0,0,159.084-53.028,229.788-194.436c3.729-7.458,6.861-15.013,9.439-22.611L404.41,243.943L404.41,243.943z"/>
<path d="M480.443,118.53c2.018,3.889,7.075,5.231,10.767,2.868c3.235-2.071,4.379-6.402,2.614-9.807
	c-1.959-3.778-4.089-7.485-6.33-11.018c-2.229-3.516-6.887-4.557-10.4-2.329c-3.516,2.229-4.558,6.885-2.329,10.4
	C476.774,111.81,478.684,115.136,480.443,118.53z"/>
<path d="M446.993,78.119c2.956,2.228,5.853,4.664,8.612,7.242c3.208,2.998,8.435,2.557,11.116-0.908
	c2.346-3.033,1.974-7.489-0.824-10.104c-3.145-2.939-6.453-5.721-9.832-8.268c-3.323-2.504-8.05-1.841-10.555,1.483
	C443.006,70.889,443.67,75.615,446.993,78.119z"/>
<path d="M410.15,60.894c3.614,0.815,7.218,1.856,10.71,3.094c4.081,1.444,8.65-0.954,9.79-5.123
	c1.027-3.755-1.087-7.785-4.754-9.084c-4.054-1.436-8.235-2.645-12.429-3.59c-4.059-0.91-8.095,1.633-9.01,5.694
	C403.541,55.944,406.091,59.977,410.15,60.894z"/>
<path d="M491.479,146.957c0.997,3.663,1.87,7.428,2.596,11.191c0.798,4.14,4.995,6.865,9.103,5.915
	c3.896-0.901,6.453-4.843,5.696-8.768c-0.797-4.133-1.756-8.27-2.853-12.295c-1.093-4.017-5.24-6.384-9.251-5.293
	C492.754,138.799,490.385,142.941,491.479,146.957z"/>
<path d="M500.621,225.114c-4.021-1.066-8.148,1.335-9.213,5.358c-0.524,1.981-1.094,3.962-1.694,5.936h-74.386
	c0.616-2.794,0.931-5.659,0.931-8.541c0-21.886-17.806-39.691-39.691-39.691c-21.886,0-39.691,17.806-39.691,39.691
	c0,2.882,0.314,5.747,0.931,8.541h-74.286v-28.932c0-5.689-6.372-9.381-11.312-6.522c-3.729,2.157-7.982,3.299-12.302,3.299
	c-13.574,0-24.619-11.044-24.619-24.619s11.044-24.619,24.619-24.619c4.319,0,8.573,1.141,12.302,3.299
	c4.939,2.86,11.312-0.834,11.312-6.522v-23.736c2.674-2.925,5.399-5.809,8.102-8.57c2.911-2.974,2.86-7.746-0.116-10.657
	c-2.975-2.912-7.747-2.859-10.656,0.116c-1.62,1.655-3.245,3.358-4.864,5.08c-32.612-34.687-66.121-56.877-99.693-65.984
	c-31.812-8.628-62.663-4.967-89.218,10.59C39.661,74.69,18.608,102.422,7.793,136.717c-10.987,34.844-10.338,73.785,1.829,109.648
	c2.724,8.031,6.033,15.957,9.834,23.56c37.295,74.59,98.949,124.499,144.103,153.234c48.83,31.074,88.383,44.428,90.042,44.982
	c1.53,0.51,3.235,0.506,4.767,0c1.659-0.554,41.213-13.908,90.042-44.982c45.154-28.735,106.807-78.643,144.102-153.233
	c3.8-7.601,7.108-15.526,9.832-23.555c0.001-0.002,0.002-0.003,0.002-0.005c1.341-3.953,2.563-8.004,3.63-12.038
	C507.043,230.304,504.644,226.179,500.621,225.114z M74.694,71.636c50.632-29.663,113.853-9.086,173.755,56.42v12.818
	c-2.794-0.617-5.659-0.931-8.541-0.931c-21.886,0-39.691,17.806-39.691,39.691s17.806,39.691,39.691,39.691
	c2.882,0,5.747-0.315,8.541-0.931v18.014h-77.164c-5.689,0-9.381,6.372-6.522,11.312c2.157,3.729,3.299,7.982,3.299,12.302
	c0,13.574-11.044,24.619-24.619,24.619s-24.619-11.044-24.619-24.619c0-4.319,1.141-8.573,3.299-12.302
	c2.859-4.94-0.833-11.312-6.522-11.312H22.26C2.429,171.181,24.442,101.075,74.694,71.636z M32.938,263.184
	c-1.912-3.823-3.688-7.736-5.315-11.704h77.06c-0.617,2.794-0.931,5.659-0.931,8.541c0,21.886,17.806,39.691,39.691,39.691
	c21.886,0,39.691-17.806,39.691-39.691c0-2.882-0.315-5.747-0.931-8.541h66.246v77.164c0,5.69,6.372,9.38,11.312,6.522
	c3.73-2.158,7.984-3.299,12.302-3.299c13.575,0,24.619,11.044,24.619,24.619s-11.043,24.619-24.619,24.619
	c-4.32,0-8.573-1.141-12.302-3.299c-4.939-2.859-11.312,0.834-11.312,6.522v65.78c-14.652-5.842-43.945-18.719-77.158-39.896
	C127.869,382.526,68.618,334.543,32.938,263.184z M479.033,263.184c-35.68,71.36-94.931,119.342-138.353,147.028
	c-33.23,21.187-62.514,34.057-77.158,39.894v-54.861c2.794,0.616,5.659,0.931,8.541,0.931c21.886,0,39.691-17.806,39.691-39.691
	s-17.806-39.691-39.691-39.691c-2.882,0-5.747,0.315-8.541,0.932V251.48h85.203c5.689,0,9.381-6.372,6.522-11.312
	c-2.157-3.729-3.299-7.984-3.299-12.302c0-13.574,11.043-24.619,24.619-24.619c13.576,0,24.619,11.044,24.619,24.619
	c0,4.319-1.142,8.573-3.299,12.302c-2.859,4.94,0.833,11.312,6.522,11.312h79.938C482.72,255.448,480.944,259.361,479.033,263.184z"
	/>
<path d="M289.867,99.969c1.687,0,3.383-0.564,4.788-1.719c3.042-2.506,6.136-4.933,9.197-7.214
	c3.336-2.488,4.026-7.209,1.538-10.547c-2.489-3.338-7.211-4.026-10.547-1.539c-3.255,2.427-6.544,5.005-9.773,7.665
	c-2.333,1.921-3.3,5.144-2.413,8.033C283.62,97.777,286.596,99.969,289.867,99.969z"/>
<path d="M504.48,181.15c-0.006,0-0.011,0-0.017,0c-4.155,0-7.527,3.363-7.536,7.519c-0.009,3.81-0.155,7.684-0.436,11.513
	c-0.305,4.151,2.814,7.763,6.965,8.068c0.188,0.014,0.374,0.021,0.56,0.021c3.912,0,7.218-3.022,7.508-6.986
	c0.307-4.182,0.468-8.416,0.477-12.582C512.01,184.54,508.643,181.159,504.48,181.15z"/>
<path d="M326.46,75.306c1.183,0,2.382-0.279,3.501-0.867c3.45-1.814,6.939-3.496,10.374-5.001c3.812-1.671,5.549-6.115,3.878-9.928
	c-1.67-3.811-6.112-5.549-9.927-3.878c-3.761,1.648-7.577,3.488-11.34,5.466c-2.907,1.528-4.52,4.877-3.894,8.103
	C319.732,72.705,322.893,75.306,326.46,75.306z"/>
<path d="M367.918,60.508c0.454,0,0.915-0.041,1.379-0.127c3.735-0.69,7.497-1.192,11.182-1.489c4.148-0.336,7.239-3.971,6.903-8.12
	s-3.96-7.247-8.12-6.904c-4.193,0.34-8.468,0.908-12.705,1.692c-3.723,0.687-6.422,4.168-6.148,7.946
	C360.69,57.391,364.016,60.508,367.918,60.508z"/>
<g>
</g>
<g>
</g>
<g>
</g>
<g>
</g>
<g>
</g>
<g>
</g>
<g>
</g>
<g>
</g>
<g>
</g>
<g>
</g>
<g>
</g>
<g>
</g>
<g>
</g>
<g>
</g>
<g>
</g>
</svg>
